<?xml version="1.0" encoding="utf-8"?>
<!-- Generator: Adobe Illustrator 26.0.1, SVG Export Plug-In . SVG Version: 6.00 Build 0)  -->
<svg version="1.1" id="_x31_519668855" xmlns="http://www.w3.org/2000/svg" xmlns:xlink="http://www.w3.org/1999/xlink" x="0px"
	 y="0px" viewBox="0 0 1080 1080" style="enable-background:new 0 0 1080 1080;" xml:space="preserve">
<style type="text/css">
	.st0{fill:#89A096;}
</style>
<path class="st0" d="M872.3,235.1c-62.1-28.5-127.7-48.9-195.1-60.5c-1.3-0.2-2.5,0.4-3.1,1.5c-8.9,16.2-17,32.9-24.3,49.9
	c-72.6-11-146.5-11-219.1,0c-7.3-17.1-15.5-33.7-24.7-49.9c-0.6-1.1-1.9-1.7-3.1-1.5c-67.4,11.6-132.9,32-195.1,60.5
	c-0.5,0.2-1,0.6-1.3,1.1C82.4,421.8,48.3,602.8,65,781.7c0.1,0.9,0.5,1.7,1.2,2.2c82,60.2,161.4,96.7,239.3,121
	c1.2,0.4,2.6-0.1,3.4-1.1c18.5-25.2,34.9-51.8,49-79.6c0.8-1.5,0.2-3.3-1.3-4c-0.1-0.1-0.3-0.1-0.4-0.2
	c-25.8-9.9-50.8-21.8-74.8-35.6c-1.5-0.9-1.9-2.7-1.1-4.2c0.2-0.3,0.5-0.6,0.8-0.9c5-3.8,10-7.7,14.9-11.6c0.9-0.7,2.1-0.9,3.1-0.4
	c156.8,71.6,326.6,71.6,481.6,0c1-0.5,2.3-0.3,3.1,0.4c4.8,4,9.8,7.9,14.9,11.7c1.4,1,1.6,2.9,0.6,4.3c-0.2,0.3-0.5,0.6-0.9,0.8
	c-23.9,14-48.9,25.9-74.8,35.6c-1.6,0.6-2.4,2.4-1.7,4c0,0.1,0.1,0.2,0.1,0.3c14.3,27.7,30.7,54.3,49,79.5c0.8,1.1,2.1,1.5,3.4,1.1
	c78.3-24.2,157.7-60.8,239.7-121c0.7-0.5,1.2-1.3,1.2-2.2c20-206.7-33.5-386.3-141.7-545.4C873.3,235.7,872.9,235.3,872.3,235.1z
	 M381.3,672.8c-47.2,0-86.1-43.3-86.1-96.6s38.1-96.6,86.1-96.6c48.3,0,86.9,43.7,86.1,96.6C467.4,629.4,429.3,672.8,381.3,672.8z
	 M699.7,672.8c-47.2,0-86.1-43.3-86.1-96.6s38.2-96.6,86.1-96.6c48.3,0,86.9,43.7,86.1,96.6C785.8,629.4,748.1,672.8,699.7,672.8z"
	/>
</svg>
