<?xml version="1.0" encoding="utf-8"?>
<!-- Generator: Adobe Illustrator 26.0.1, SVG Export Plug-In . SVG Version: 6.00 Build 0)  -->
<svg version="1.1" id="_x31_363565521" xmlns="http://www.w3.org/2000/svg" xmlns:xlink="http://www.w3.org/1999/xlink" x="0px"
	 y="0px" viewBox="0 0 1080 1080" style="enable-background:new 0 0 1080 1080;" xml:space="preserve">
<style type="text/css">
	.st0{fill:#89A096;}
</style>
<path class="st0" d="M64.8,594.5c0,0,82.4,28.2,153,49.4s108.2-2.4,108.2-2.4L657.9,418c117.7-80,89.4-14.1,61.2,14.1
	C657.9,493.3,556.7,589.8,472,667.5c-37.7,33-18.8,61.2-2.4,75.3c61.2,51.8,228.3,157.7,237.7,164.8c11.7,9.5,77.6,51.8,117.6,42.4
	s44.7-63.5,44.7-63.5l58.8-369.5c18.8-124.7,37.7-240.1,40-273c7.1-80-77.7-47.1-77.7-47.1s-183.6,75.3-237.7,98.8L104.8,521.5
	C8.3,559.2,64.8,594.5,64.8,594.5z"/>
</svg>
