<svg width="960" height="960" viewBox="0 0 960 960" fill="none" xmlns="http://www.w3.org/2000/svg">
<g clip-path="url(#clip0_1683_3933)">
<rect width="960" height="960" fill="#242E66"/>
<path d="M425.88 445.245V624H355.935V445.245C355.935 412.425 339.96 400.77 318.795 400.77C297.63 400.77 281.67 412.425 281.67 445.245V624H211.71V445.245C211.71 412.425 195.3 400.77 174.585 400.77C153.87 400.77 137.445 412.425 137.445 445.245V624H67.5V445.245C67.5 369.915 111.255 336.21 168 336H168.54C202.65 336 229.845 349.38 246.69 374.865C263.535 349.38 290.73 336 324.84 336C381.84 336 425.88 369.675 425.88 445.245Z" fill="#EF6125"/>
<path d="M448.5 624H661.197V557.945H519.839V506.422H635.656V449.174H519.839V402.055H661.197V336H448.5V624Z" fill="#EF6125"/>
<path d="M893.881 534.21C893.881 589.275 852.376 624 789.691 624C757.441 624 730.846 614.91 712.606 598.56L752.416 536.76C752.416 554.115 763.006 565.125 789.691 565.125C816.376 565.125 826.966 554.115 826.966 536.76C826.966 518.535 805.786 514.305 780.376 509.655C777.301 509.1 774.181 508.515 771.001 507.9C733.441 500.655 690.586 487.875 690.586 425.79C690.586 373.275 730.396 336 790.111 336C821.026 336 846.661 345.975 864.181 363.255L825.271 423.66C824.836 407.565 814.681 394.875 790.966 394.875C767.251 394.875 756.646 408.855 756.646 423.24C756.646 441.465 777.826 445.695 803.671 450.345C804.976 450.585 806.296 450.825 807.616 451.065C846.721 458.22 893.881 469.08 893.881 534.21Z" fill="#EF6125"/>
<path d="M752.415 536.76L712.605 598.56C695.835 583.575 686.1 562.485 685.5 536.76H752.415Z" fill="#EF6125"/>
<path d="M889.635 423.678H825.27L864.18 363.258C879.525 378.408 888.645 399.138 889.635 423.678Z" fill="#EF6125"/>
<path d="M654 618H570C622.5 612.75 639.75 609 654 577.5V618Z" fill="#F9804D"/>
<path d="M73.5 426C73.5 387.75 108 342 157.5 342C79.5 370.5 154.5 405.75 73.5 426Z" fill="#FFB08F"/>
<path d="M253.5 375.002C253.5 364.499 292.5 332.247 337.5 341.999C273.75 346.502 327.75 375.002 253.5 375.002Z" fill="#FFB08F"/>
<path d="M697.5 426C697.5 401.25 717 342.75 781.5 342C709.5 360.75 769.5 403.5 697.5 426Z" fill="#FFB08F"/>
<path d="M874.5 577.5C864.75 598.5 839.25 618 781.5 618C807.75 572.25 848.25 615 874.5 577.5Z" fill="#F9804D"/>
<path d="M454.5 342V426C454.5 381 483.75 342 538.5 342H454.5Z" fill="#FFB08F"/>
<path d="M130.5 618H91.5C91.5 600 130.5 621 130.5 577.5V598.049V618Z" fill="#F9804D"/>
<path d="M274.5 618H235.5C235.5 600 274.5 621 274.5 577.5V598.049V618Z" fill="#F9804D"/>
<path d="M418.5 618H379.5C379.5 600 418.5 621 418.5 577.5V598.049V618Z" fill="#F9804D"/>
</g>
<defs>
<clipPath id="clip0_1683_3933">
<rect width="960" height="960" fill="white"/>
</clipPath>
</defs>
</svg>
