<svg width="1536" height="736" viewBox="0 0 1536 736" fill="none" xmlns="http://www.w3.org/2000/svg">
<rect width="1536" height="736" rx="100" fill="white"/>
<path d="M731.92 264.83V384H685.29V264.83C685.29 242.95 674.64 235.18 660.53 235.18C646.42 235.18 635.78 242.95 635.78 264.83V384H589.14V264.83C589.14 242.95 578.2 235.18 564.39 235.18C550.58 235.18 539.63 242.95 539.63 264.83V384H493V264.83C493 214.61 522.17 192.14 560 192H560.36C583.1 192 601.23 200.92 612.46 217.91C623.69 200.92 641.82 192 664.56 192C702.56 192 731.92 214.45 731.92 264.83Z" fill="#EF6125"/>
<path d="M747 384H888.798V339.963H794.56V305.615H871.771V267.45H794.56V236.037H888.798V192H747V384Z" fill="#EF6125"/>
<path d="M1043.92 324.14C1043.92 360.85 1016.25 384 974.461 384C952.961 384 935.231 377.94 923.071 367.04L949.611 325.84C949.611 337.41 956.671 344.75 974.461 344.75C992.251 344.75 999.311 337.41 999.311 325.84C999.311 313.69 985.191 310.87 968.251 307.77C966.201 307.4 964.121 307.01 962.001 306.6C936.961 301.77 908.391 293.25 908.391 251.86C908.391 216.85 934.931 192 974.741 192C995.351 192 1012.44 198.65 1024.12 210.17L998.181 250.44C997.891 239.71 991.121 231.25 975.311 231.25C959.501 231.25 952.431 240.57 952.431 250.16C952.431 262.31 966.551 265.13 983.781 268.23C984.651 268.39 985.531 268.55 986.411 268.71C1012.48 273.48 1043.92 280.72 1043.92 324.14Z" fill="#EF6125"/>
<path d="M949.61 325.84L923.07 367.04C911.89 357.05 905.4 342.99 905 325.84H949.61Z" fill="#EF6125"/>
<path d="M1041.09 250.452H998.18L1024.12 210.172C1034.35 220.272 1040.43 234.092 1041.09 250.452Z" fill="#EF6125"/>
<path d="M884 380H828C863 376.5 874.5 374 884 353V380Z" fill="#F9804D"/>
<path d="M497 252C497 226.5 520 196 553 196C501 215 551 238.5 497 252Z" fill="#FFB08F"/>
<path d="M617 218.002C617 211 643 189.498 673 196C630.5 199.001 666.5 218.002 617 218.002Z" fill="#FFB08F"/>
<path d="M913 252C913 235.5 926 196.5 969 196C921 208.5 961 237 913 252Z" fill="#FFB08F"/>
<path d="M1031 353C1024.5 367 1007.5 380 969 380C986.5 349.5 1013.5 378 1031 353Z" fill="#F9804D"/>
<path d="M751 196V252C751 222 770.5 196 807 196H751Z" fill="#FFB08F"/>
<path d="M535 380H509C509 368 535 382 535 353V366.699V380Z" fill="#F9804D"/>
<path d="M631 380H605C605 368 631 382 631 353V366.699V380Z" fill="#F9804D"/>
<path d="M727 380H701C701 368 727 382 727 353V366.699V380Z" fill="#F9804D"/>
<path d="M198.985 544H218.596V487.986C218.596 476.837 224.238 472.539 231.76 472.539C239.148 472.539 244.924 476.837 244.924 487.986V544H264.402V487.986C264.402 476.837 270.178 472.539 277.565 472.539C285.088 472.539 290.729 476.837 290.729 487.986V544H310.341V487.986C310.341 464.882 296.774 454.405 279.312 454.405C268.431 454.405 259.834 458.838 254.73 467.166C249.491 458.838 240.895 454.405 230.014 454.405C212.552 454.405 198.985 464.882 198.985 487.986V544ZM355.826 574.089C373.96 574.089 388.736 564.82 388.736 541.716V477.643H370.602V511.09C370.602 522.374 364.423 527.881 355.96 527.881C347.229 527.881 341.319 522.642 341.319 511.09V477.643H323.185V511.09C323.185 535.135 337.961 544.806 352.468 544.806C360.393 544.806 366.706 541.313 370.602 534.866V542.254C370.602 553.671 365.632 558.373 355.826 558.373C348.572 558.373 344.14 556.089 341.856 550.851H323.722C327.215 566.835 340.11 574.089 355.826 574.089ZM440.745 544H505.624V525.866H460.356V507.598H497.833V491.21H460.356V474.285H505.624V456.151H440.745V544ZM517.674 544H535.808V509.613C535.808 498.061 541.718 492.822 550.449 492.822C559.18 492.822 565.091 498.061 565.091 509.613V544H583.225V509.613C583.225 487.18 570.061 475.897 550.449 475.897C530.838 475.897 517.674 487.315 517.674 509.613V544ZM629.021 574.089C648.364 574.089 664.215 564.283 664.215 538.896V511.493C664.215 489.732 649.707 475.897 628.753 475.897C607.798 475.897 593.022 490.673 593.022 510.822C593.022 534.866 610.35 544.806 625.26 544.806C634.394 544.806 641.782 541.313 646.081 534.597V539.433C646.081 553.537 639.767 558.373 628.887 558.373C621.365 558.373 615.723 555.955 613.439 550.851H595.037C599.201 566.835 612.231 574.089 629.021 574.089ZM628.753 527.881C618.41 527.881 611.425 521.433 611.425 510.822C611.425 500.21 618.41 492.822 628.753 492.822C639.096 492.822 646.081 500.21 646.081 510.822C646.081 521.433 639.096 527.881 628.753 527.881ZM678.91 544H697.044V448.629H678.91V544ZM723.052 470.39C729.903 470.39 734.873 465.419 734.873 458.569C734.873 451.718 729.903 446.748 723.052 446.748C716.202 446.748 711.232 451.718 711.232 458.569C711.232 465.419 716.202 470.39 723.052 470.39ZM713.918 544H732.052V477.643H713.918V544ZM772.3 545.746C789.359 545.746 800.374 536.746 800.374 523.18C800.374 507.06 784.926 504.911 775.792 503.568C769.076 502.628 763.703 501.956 763.703 497.523C763.703 494.165 766.389 491.21 772.434 491.21C777.538 491.21 780.762 493.494 781.165 497.12H799.03C798.627 485.3 788.553 475.897 772.165 475.897C755.777 475.897 745.3 485.031 745.3 498.598C745.3 514.717 760.345 516.732 770.016 518.075C776.732 519.015 782.105 519.553 782.105 524.254C782.105 527.612 779.284 530.433 772.165 530.433C765.583 530.433 762.359 528.015 762.225 524.12H744.091C744.494 536.612 755.374 545.746 772.3 545.746ZM812.401 544H830.535V509.613C830.535 498.329 836.714 492.822 845.176 492.822C853.908 492.822 859.818 498.061 859.818 509.613V544H877.952V509.613C877.952 485.568 863.176 475.897 848.669 475.897C841.012 475.897 834.699 479.389 830.535 485.837V448.629H812.401V544ZM956.02 545.746C975.766 545.746 988.93 534.866 988.93 517.672C988.93 496.717 972.945 493.897 960.05 491.479C951.185 489.867 943.662 488.523 943.662 481.807C943.662 476.3 947.692 471.464 956.423 471.464C964.886 471.464 968.916 475.897 969.05 481.807H987.453C986.781 465.419 974.423 454.405 956.155 454.405C937.349 454.405 924.857 466.091 924.857 482.479C924.857 503.434 940.707 506.254 953.602 508.672C962.334 510.284 969.856 511.628 969.856 518.344C969.856 524.523 965.557 528.687 956.02 528.687C946.618 528.687 942.319 524.523 942.319 518.344H923.111C923.514 535.269 936.543 545.746 956.02 545.746ZM1032.28 545.746C1050.54 545.746 1063.84 534.597 1066.8 518.478H1048.53C1045.98 524.791 1039.93 528.821 1032.28 528.821C1021.93 528.821 1014.95 521.433 1014.95 510.822C1014.95 500.21 1021.93 492.822 1032.28 492.822C1039.93 492.822 1045.98 496.852 1048.53 503.165H1066.8C1063.84 487.046 1050.54 475.897 1032.28 475.897C1011.32 475.897 996.545 490.673 996.545 510.822C996.545 530.97 1011.32 545.746 1032.28 545.746ZM1078.63 544H1096.76V509.613C1096.76 498.329 1102.94 492.822 1111.4 492.822C1120.13 492.822 1126.05 498.061 1126.05 509.613V544H1144.18V509.613C1144.18 485.568 1129.4 475.897 1114.9 475.897C1107.24 475.897 1100.93 479.389 1096.76 485.837V448.629H1078.63V544ZM1189.66 545.746C1210.61 545.746 1225.39 530.97 1225.39 510.822C1225.39 490.673 1210.61 475.897 1189.66 475.897C1168.7 475.897 1153.93 490.673 1153.93 510.822C1153.93 530.97 1168.7 545.746 1189.66 545.746ZM1189.66 528.821C1179.31 528.821 1172.33 521.433 1172.33 510.822C1172.33 500.21 1179.31 492.822 1189.66 492.822C1200 492.822 1206.98 500.21 1206.98 510.822C1206.98 521.433 1200 528.821 1189.66 528.821ZM1268.22 545.746C1289.17 545.746 1303.95 530.97 1303.95 510.822C1303.95 490.673 1289.17 475.897 1268.22 475.897C1247.26 475.897 1232.49 490.673 1232.49 510.822C1232.49 530.97 1247.26 545.746 1268.22 545.746ZM1268.22 528.821C1257.87 528.821 1250.89 521.433 1250.89 510.822C1250.89 500.21 1257.87 492.822 1268.22 492.822C1278.56 492.822 1285.54 500.21 1285.54 510.822C1285.54 521.433 1278.56 528.821 1268.22 528.821ZM1315.88 544H1334.01V448.629H1315.88V544Z" fill="#242E66"/>
</svg>
